# xmcd CD database file
#
# Track frame offsets:
#	150
#	55225
#	103320
#	135077
#
# Disc length: 2956 seconds
#
# Revision: 0
# Processed by: cddbd v1.5.2PL0 Copyright (c) Steve Scherf et al.
# Submitted via: CDex 1.70beta2
#
DISCID=2e0b8a04
DTITLE=Charles Tolliver - Music Inc. "Live In Tokyo"
DYEAR=1973
DGENRE=Jazz
TTITLE0=Drought
TTITLE1=Stretch
TTITLE2=Truth
TTITLE3=Effi - Round About Midnight
EXTD=YEAR: 1973
EXTT0=
EXTT1=
EXTT2=
EXTT3=
PLAYORDER=
